<svg xmlns="http://www.w3.org/2000/svg" width="85" height="29" fill="none" viewBox="0 0 85 29"><path fill="#0066B3" d="M78.915 1.155H.525v27.498h78.39V1.155z"/><path fill="#FD0" fill-rule="evenodd" d="M39.631 27.505c21.045 0 38.102-5.63 38.102-12.58 0-6.955-17.057-12.587-38.102-12.587C18.587 2.338 1.53 7.97 1.53 14.925c-.007 6.95 17.05 12.58 38.101 12.58z" clip-rule="evenodd"/><path stroke="#FD0" stroke-width=".308" d="M39.631 27.505c21.045 0 38.102-5.63 38.102-12.58 0-6.955-17.057-12.587-38.102-12.587C18.587 2.338 1.53 7.97 1.53 14.925c-.007 6.95 17.05 12.58 38.101 12.58z"/><path fill="#0066B3" d="M79.503 3.649a2.7 2.7 0 015.398 0c0 1.494-1.211 2.713-2.692 2.713a2.707 2.707 0 01-2.706-2.713zm4.895 0a2.186 2.186 0 00-2.189-2.189 2.183 2.183 0 00-2.196 2.189c0 1.232.97 2.196 2.196 2.196a2.178 2.178 0 002.189-2.196zm-.843 1.466h-.666l-.651-1.225h-.567v1.225h-.581V2.211h1.424c.248 0 .56 0 .786.134.262.17.34.447.34.758 0 .532-.27.751-.793.794l.708 1.218zm-1.027-1.658c.319.008.545-.077.545-.446 0-.382-.418-.382-.7-.382h-.695v.836h.85v-.008z"/><path fill="#0066B3" fill-rule="evenodd" d="M17.885 19.643s-.311-.248-.311-.673V9.322c0-.184.29-.39.29-.39h-7.21s.375.143.375.39v9.924c0 .199-.199.397-.199.397h7.055z" clip-rule="evenodd"/><path stroke="#FD0" stroke-width=".308" d="M17.885 19.643s-.311-.248-.311-.673V9.322c0-.184.29-.39.29-.39h-7.21s.375.143.375.39v9.924c0 .199-.199.397-.199.397h7.055z"/><path fill="#0066B3" fill-rule="evenodd" d="M38.066 19.643l-3.896-6.41 3.102-4.3h-6.736l-2.713 3.244V8.933h-6.807s.262.333.262.46v9.79c0 .134-.262.46-.262.46h6.807v-3.57l2.38 3.57h7.863z" clip-rule="evenodd"/><path stroke="#FD0" stroke-width=".308" d="M38.066 19.643l-3.896-6.41 3.102-4.3h-6.736l-2.713 3.244V8.933h-6.807s.262.333.262.46v9.79c0 .134-.262.46-.262.46h6.807v-3.57l2.38 3.57h7.863v0z"/><path fill="#0066B3" fill-rule="evenodd" d="M51.482 11.972c.198 0 .467.205.467.205V8.933H39.915s.19.205.19.39v9.86c0 .198-.19.46-.19.46l12.034.021v-3.91s-.205.248-.396.248h-4.888v-.517h4.165v-2.848h-4.165v-.665h4.817z" clip-rule="evenodd"/><path stroke="#FD0" stroke-width=".308" d="M51.482 11.972c.198 0 .467.205.467.205V8.933H39.915s.19.205.19.39v9.86c0 .198-.19.46-.19.46l12.034.021v-3.91s-.205.248-.396.248h-4.888v-.517h4.165v-2.848h-4.165v-.665h4.817z"/><path fill="#0066B3" d="M63.516 19.643h7.346s-3.832-9.91-3.903-10.179c-.071-.262.07-.602.07-.602H56.845s.262.333.198.673c-.064.319-3.775 10.108-3.775 10.108h5.95l.765-2.14h2.713l.821 2.14zm-2.734-4.385l.482-1.367.545 1.367h-1.027z"/><path stroke="#FD0" stroke-width=".308" d="M63.516 19.643h7.346s-3.832-9.91-3.903-10.179c-.071-.262.07-.602.07-.602H56.845s.262.333.198.673c-.064.319-3.775 10.108-3.775 10.108h5.95l.765-2.14h2.713l.821 2.14zm-2.734-4.385l.482-1.367.545 1.367h-1.027z"/></svg>